<?xml version="1.0" encoding="UTF-8"?><svg id="Layer_1" xmlns="http://www.w3.org/2000/svg" xmlns:xlink="http://www.w3.org/1999/xlink" viewBox="0 0 1549.12 582.17"><defs><style>.cls-1{fill:#ed2f7c;}.cls-2{fill:url(#linear-gradient-2);}.cls-2,.cls-3,.cls-4,.cls-5{fill-rule:evenodd;}.cls-3{fill:url(#linear-gradient-3);}.cls-4{fill:url(#linear-gradient-4);}.cls-6{fill:#188b4e;}.cls-7{fill:#2ea9dd;}.cls-8{fill:#f5f9f4;}.cls-9{fill:#f6ea36;}.cls-10{fill:#118b57;}.cls-11{fill:#723c81;}.cls-12{fill:#5ba359;}.cls-13{fill:#e13735;}.cls-14{fill:#ed2e7c;}.cls-15{fill:none;stroke:#e3e3e3;stroke-miterlimit:10;stroke-width:7px;}.cls-16{fill:#4a4a49;}.cls-5{fill:url(#linear-gradient);}.cls-17{fill:#5aa259;}.cls-18{fill:#55a24a;}</style><linearGradient id="linear-gradient" x1="83.76" y1="683.02" x2="83.55" y2="683.53" gradientTransform="translate(-24870.32 253368.79) scale(300.26 -370.47)" gradientUnits="userSpaceOnUse"><stop offset="0" stop-color="#ef2131"/><stop offset="1" stop-color="#fecf2c"/></linearGradient><linearGradient id="linear-gradient-2" x1="84.04" y1="683.53" x2="83.55" y2="682.59" gradientTransform="translate(-22663.79 205343.95) scale(273.83 -300.16)" gradientUnits="userSpaceOnUse"><stop offset="0" stop-color="#fbc52c"/><stop offset=".26" stop-color="#f87130"/><stop offset=".56" stop-color="#ef52e2"/><stop offset="1" stop-color="#661eec"/></linearGradient><linearGradient id="linear-gradient-3" x1="83.71" y1="683.43" x2="83.91" y2="682.93" gradientTransform="translate(-24989.61 253319.74) scale(300.25 -370.47)" gradientUnits="userSpaceOnUse"><stop offset="0" stop-color="#78f6d8"/><stop offset=".27" stop-color="#77d1f6"/><stop offset=".55" stop-color="#70a4f3"/><stop offset="1" stop-color="#661eec"/></linearGradient><linearGradient id="linear-gradient-4" x1="83.36" y1="682.8" x2="83.85" y2="683.74" gradientTransform="translate(-22756.68 205224.29) scale(273.83 -300.16)" gradientUnits="userSpaceOnUse"><stop offset="0" stop-color="#536eed"/><stop offset=".25" stop-color="#54c3ec"/><stop offset=".56" stop-color="#64d769"/><stop offset="1" stop-color="#fecf2c"/></linearGradient></defs><g id="_x30_1-Primary-_x28_Vertical_x29__x2F_Colour_x2F_Light-background_x2F_Swish_x5F_Logo_x5F_Primary_x5F_Light-BG"><g id="Wordmark_x2F_Swish"><path id="swish_xAE_" class="cls-16" d="M381.41,502.05c0-2.03.37-3.93,1.12-5.7.75-1.77,1.76-3.32,3.04-4.64,1.28-1.32,2.78-2.36,4.51-3.12,1.72-.76,3.57-1.14,5.55-1.14s3.88.38,5.63,1.14c1.75.76,3.27,1.8,4.57,3.12s2.32,2.87,3.06,4.64c.75,1.77,1.12,3.67,1.12,5.7s-.37,3.93-1.12,5.7c-.75,1.77-1.77,3.32-3.06,4.64-1.29,1.32-2.82,2.36-4.57,3.12-1.75.76-3.62,1.14-5.63,1.14s-3.82-.38-5.55-1.14c-1.72-.76-3.22-1.8-4.51-3.12-1.28-1.32-2.3-2.87-3.04-4.64-.75-1.77-1.12-3.67-1.12-5.7ZM384.33,502.05c0,1.68.29,3.24.86,4.68.57,1.44,1.37,2.69,2.38,3.76,1.01,1.07,2.21,1.91,3.58,2.52,1.37.61,2.86.92,4.46.92s3.14-.31,4.53-.92c1.39-.61,2.6-1.45,3.62-2.52s1.84-2.32,2.42-3.76c.59-1.44.88-3,.88-4.68s-.29-3.24-.88-4.68c-.59-1.44-1.39-2.69-2.42-3.76-1.03-1.07-2.24-1.91-3.62-2.52-1.39-.61-2.9-.92-4.53-.92s-3.09.31-4.46.92c-1.37.61-2.57,1.45-3.58,2.52-1.01,1.07-1.81,2.32-2.38,3.76-.57,1.44-.86,3-.86,4.68ZM390.74,495.77c0-.88.44-1.32,1.32-1.32h4.53c1.44,0,2.59.41,3.44,1.24.85.83,1.28,1.95,1.28,3.36,0,.59-.09,1.11-.26,1.56-.17.45-.39.85-.66,1.18-.27.33-.56.61-.88.82s-.64.36-.96.44v.08s.07.08.12.16c.05.05.11.14.16.26.05.12.13.26.24.42l2.08,4.04c.24.45.29.82.16,1.1-.13.28-.43.42-.88.42h-.48c-.75,0-1.27-.32-1.56-.96l-2.32-4.88h-2.48v4.56c0,.85-.41,1.28-1.24,1.28h-.36c-.83,0-1.24-.43-1.24-1.28v-12.48ZM395.98,501.61c.77,0,1.37-.23,1.8-.68s.64-1.08.64-1.88-.21-1.37-.64-1.8c-.43-.43-1.01-.64-1.76-.64h-2.44v5h2.4ZM279.26,511.17c4.53,0,8.37.58,11.52,1.73,3.15,1.15,5.61,2.22,7.39,3.19,1.51.8,2.4,1.86,2.66,3.19.27,1.33.04,2.75-.67,4.25l-1.33,2.39c-.8,1.6-1.82,2.53-3.06,2.79s-2.71.04-4.39-.66c-1.51-.71-3.33-1.44-5.46-2.19s-4.62-1.13-7.46-1.13-5.19.58-6.79,1.73c-1.6,1.15-2.4,2.79-2.4,4.92,0,1.86.82,3.37,2.46,4.52,1.64,1.15,3.73,2.17,6.26,3.06,2.53.89,5.24,1.84,8.12,2.86,2.88,1.02,5.59,2.33,8.12,3.92s4.62,3.63,6.26,6.12c1.64,2.48,2.46,5.63,2.46,9.44,0,3.01-.6,5.78-1.8,8.31s-2.93,4.72-5.19,6.58c-2.26,1.86-4.99,3.32-8.19,4.39-3.2,1.06-6.75,1.6-10.65,1.6-5.5,0-10.14-.8-13.91-2.39-3.77-1.6-6.68-3.1-8.72-4.52-1.51-.89-2.35-1.99-2.53-3.32-.18-1.33.22-2.75,1.2-4.25l1.6-2.39c.98-1.42,2.06-2.22,3.26-2.39s2.64.18,4.33,1.06c1.6.89,3.66,1.88,6.19,2.99,2.53,1.11,5.53,1.66,8.99,1.66,2.93,0,5.24-.62,6.92-1.86s2.53-2.93,2.53-5.05c0-1.86-.82-3.35-2.46-4.45-1.64-1.11-3.73-2.13-6.26-3.06-2.53-.93-5.24-1.93-8.12-2.99-2.88-1.06-5.59-2.39-8.12-3.99-2.53-1.6-4.62-3.63-6.26-6.12-1.64-2.48-2.46-5.67-2.46-9.57,0-3.28.69-6.2,2.06-8.78,1.38-2.57,3.24-4.7,5.59-6.38s5.1-2.97,8.26-3.86c3.15-.89,6.5-1.33,10.05-1.33ZM81.34,511.17c4.53,0,8.37.58,11.52,1.73s5.61,2.22,7.39,3.19c1.51.8,2.4,1.86,2.66,3.19.27,1.33.04,2.75-.67,4.25l-1.33,2.39c-.8,1.6-1.82,2.53-3.06,2.79s-2.71.04-4.39-.66c-1.51-.71-3.33-1.44-5.46-2.19-2.13-.75-4.62-1.13-7.46-1.13s-5.19.58-6.79,1.73c-1.6,1.15-2.4,2.79-2.4,4.92,0,1.86.82,3.37,2.46,4.52,1.64,1.15,3.73,2.17,6.26,3.06,2.53.89,5.24,1.84,8.12,2.86,2.88,1.02,5.59,2.33,8.12,3.92,2.53,1.6,4.62,3.63,6.26,6.12,1.64,2.48,2.46,5.63,2.46,9.44,0,3.01-.6,5.78-1.8,8.31s-2.93,4.72-5.19,6.58c-2.26,1.86-4.99,3.32-8.19,4.39-3.2,1.06-6.75,1.6-10.65,1.6-5.5,0-10.14-.8-13.91-2.39-3.77-1.6-6.68-3.1-8.72-4.52-1.51-.89-2.35-1.99-2.53-3.32-.18-1.33.22-2.75,1.2-4.25l1.6-2.39c.98-1.42,2.06-2.22,3.26-2.39,1.2-.18,2.64.18,4.33,1.06,1.6.89,3.66,1.88,6.19,2.99,2.53,1.11,5.53,1.66,8.99,1.66,2.93,0,5.24-.62,6.92-1.86,1.69-1.24,2.53-2.93,2.53-5.05,0-1.86-.82-3.35-2.46-4.45-1.64-1.11-3.73-2.13-6.26-3.06-2.53-.93-5.24-1.93-8.12-2.99-2.88-1.06-5.59-2.39-8.12-3.99-2.53-1.6-4.62-3.63-6.26-6.12s-2.46-5.67-2.46-9.57c0-3.28.69-6.2,2.06-8.78,1.38-2.57,3.24-4.7,5.59-6.38s5.1-2.97,8.26-3.86c3.15-.89,6.5-1.33,10.05-1.33ZM324.12,486.17c3.73,0,5.59,1.86,5.59,5.58v27.39c0,.89-.02,1.66-.07,2.33-.04.66-.11,1.26-.2,1.8-.09.62-.13,1.15-.13,1.6h.27c.8-1.6,1.93-3.21,3.4-4.85,1.46-1.64,3.2-3.12,5.19-4.45,2-1.33,4.26-2.39,6.79-3.19,2.53-.8,5.26-1.2,8.19-1.2,7.55,0,13.38,2.04,17.51,6.12,4.13,4.08,6.19,10.64,6.19,19.68v38.03c0,3.72-1.86,5.58-5.59,5.58h-5.73c-3.73,0-5.59-1.86-5.59-5.58v-34.57c0-4.17-.71-7.51-2.13-10.04s-4.26-3.79-8.52-3.79c-2.93,0-5.61.58-8.06,1.73-2.44,1.15-4.5,2.73-6.19,4.72-1.69,1.99-3,4.37-3.93,7.11-.93,2.75-1.4,5.72-1.4,8.91v25.93c0,3.72-1.86,5.58-5.59,5.58h-5.73c-3.73,0-5.59-1.86-5.59-5.58v-83.24c0-3.72,1.86-5.58,5.59-5.58h5.73ZM235.65,512.77c3.64,0,5.46,1.86,5.46,5.58v56.64c0,3.72-1.82,5.58-5.46,5.58h-5.86c-3.64,0-5.46-1.86-5.46-5.58v-56.64c0-3.72,1.82-5.58,5.46-5.58h5.86ZM122.68,512.77c3.37,0,5.37,1.64,5.99,4.92l10.92,39.62c.18.98.33,1.86.47,2.66.13.8.29,1.55.47,2.26.18.8.31,1.55.4,2.26h.27c.09-.71.22-1.46.4-2.26.18-.71.33-1.46.47-2.26.13-.8.33-1.68.6-2.66l11.45-39.62c.62-3.19,2.66-4.79,6.12-4.79h5.06c3.28,0,5.33,1.6,6.12,4.79l11.32,39.62c.27.98.47,1.86.6,2.66.13.8.29,1.55.47,2.26.18.8.31,1.55.4,2.26h.27c.09-.71.22-1.46.4-2.26.18-.71.33-1.46.47-2.26.13-.8.33-1.68.6-2.66l10.79-39.62c.8-3.28,2.84-4.92,6.12-4.92h6.12c2.04,0,3.46.58,4.26,1.73.8,1.15.93,2.66.4,4.52l-17.44,56.91c-.89,3.1-2.97,4.65-6.26,4.65h-8.92c-3.37,0-5.46-1.6-6.26-4.79l-10.25-33.91c-.27-.89-.49-1.77-.67-2.66s-.36-1.68-.53-2.39c-.18-.8-.31-1.55-.4-2.26h-.27c-.18.71-.36,1.46-.53,2.26-.18.71-.36,1.51-.53,2.39-.18.89-.4,1.77-.67,2.66l-10.25,33.91c-.8,3.19-2.84,4.79-6.12,4.79h-9.19c-3.2,0-5.24-1.55-6.12-4.65l-17.58-56.91c-.53-1.86-.38-3.37.47-4.52.84-1.15,2.24-1.73,4.19-1.73h6.39Z"/></g><g id="Symbol_x2F_Colour"><g id="Right-Swirl"><path id="Base-Shape" class="cls-5" d="M119.33,415.33c84.29,40.31,188.31,20.36,251.16-54.52,74.49-88.75,62.92-221.06-25.84-295.53l-59.01,70.31c69.34,58.17,78.38,161.54,20.19,230.88-46.4,55.29-122.8,73.75-186.5,48.86"/><path id="Light-Cast" class="cls-2" d="M119.33,415.33c84.29,40.31,188.31,20.36,251.16-54.52,7.7-9.17,14.47-18.81,20.34-28.8,9.92-61.67-11.9-126.86-63.24-169.93-13.04-10.94-27.16-19.76-41.94-26.49,69.33,58.18,78.37,161.54,20.18,230.87-46.4,55.29-122.8,73.75-186.5,48.86"/></g><g id="Left-Swirl"><path id="Base-shape" class="cls-3" d="M300.25,36.6C215.97-3.71,111.94,16.24,49.1,91.12c-74.49,88.75-62.92,221.06,25.84,295.53l59.01-70.31c-69.34-58.17-78.38-161.54-20.19-230.88,46.4-55.29,122.8-73.75,186.5-48.86"/><path id="Shadow" class="cls-4" d="M300.25,36.6C215.97-3.71,111.94,16.24,49.1,91.12c-7.7,9.17-14.47,18.81-20.34,28.8-9.92,61.67,11.9,126.86,63.24,169.93,13.04,10.94,27.16,19.76,41.94,26.49-69.33-58.17-78.37-161.54-20.18-230.87,46.4-55.29,122.8-73.75,186.5-48.86"/></g></g></g><path class="cls-1" d="M1371.05,334.52c0,12.87-.23,25.75,0,38.57.05,3.79-1.03,5.99-4.31,8.14-34.26,22-68.39,44.14-102.51,66.33-2.62,1.69-4.49,2.06-7.35.19-34.41-22.47-68.95-44.75-103.5-67.08-2.06-1.31-3.79-2.48-3.74-5.43.23-13.43.23-26.92.33-40.35,18.3,11.7,36.61,23.31,54.81,35.15,3.23,2.11,5.48,2.43,8.89.19,15.49-10.2,31.18-20.03,46.81-30.01,15.63,9.97,31.27,19.94,46.81,29.96,2.48,1.59,4.4,2.57,7.4.56,18.58-12.31,37.31-24.43,55.94-36.61l.37.37h.05Z"/><path class="cls-1" d="M1149.92,157.16c-.09-13.43-.09-26.87-.28-40.35-.05-2.81,1.22-4.26,3.37-5.62,34.5-22.28,69.04-44.56,103.45-66.98,3-1.97,5.01-1.69,7.86.14,34.12,22.19,68.25,44.33,102.47,66.33,3,1.92,4.26,3.93,4.21,7.58-.28,12.83-.23,25.7-.33,38.57-17.74-11.37-35.58-22.7-53.22-34.26-4.26-2.81-7.4-3.28-12.03-.19-14.84,10.06-30.15,19.47-45.27,29.12-14.6-9.32-29.4-18.35-43.72-28.13-5.43-3.74-9.08-3.51-14.46.14-17.13,11.56-34.69,22.47-52.1,33.66h.05Z"/><path class="cls-13" d="M1260.15,151.54c15.12-9.64,30.38-19.1,45.27-29.12,4.63-3.14,7.77-2.62,12.03.19,17.65,11.56,35.48,22.84,53.22,34.26.14.28.28.56.42.84,0,21.86-.05,43.72-.09,65.58-.33.23-.66.47-.98.66-16.24-11.28-32.95-21.91-49.76-32.35-.47-.42-.94-.8-1.4-1.22-19.52-12.73-39.09-25.42-58.61-38.15v-.61l-.09-.09Z"/><path class="cls-13" d="M1260.48,340.18c-15.63,9.97-31.36,19.8-46.81,30.01-3.42,2.25-5.66,1.97-8.89-.19-18.16-11.84-36.51-23.45-54.81-35.15-.23-.28-.37-.61-.51-.98,0-21.72.05-43.49.09-65.21.42-.28.8-.56,1.22-.84,16.24,11.33,33,21.86,49.76,32.39,19.43,13.95,39.84,26.4,59.96,39.23v.75Z"/><path class="cls-11" d="M1260.15,151.54v.61c-19.15,12.31-38.24,24.62-57.39,36.93-1.03.66-1.92,1.36-2.29,2.57-17.04,10.16-33.61,20.97-49.9,32.3-.28,0-.51-.14-.75-.28-.05-2.34-.14-4.73-.14-7.07-.09-19.47-.19-38.95-.28-58.42.14-.37.28-.7.51-1.03,17.41-11.19,34.97-22.09,52.1-33.66,5.38-3.65,9.03-3.84,14.46-.14,14.28,9.78,29.12,18.82,43.72,28.13l-.05.05Z"/><path class="cls-12" d="M1370.02,223.86c.33-.23.66-.47.98-.66,16.9-10.81,33.8-21.63,50.69-32.44.09,16.62.28,33.23.33,49.85.05,18.02,0,36.04,0,54.07,0,2.15.47,4.35-.61,6.41-16.38-11.61-33.42-22.23-50.46-32.86-.23-.19-.51-.33-.8-.37-10.95-7.4-21.91-14.75-32.81-22.14,10.91-7.3,21.81-14.56,32.72-21.86h-.05Z"/><path class="cls-12" d="M1149.82,223.67s.47.23.75.28c10.95,7.4,21.95,14.75,32.91,22.14-10.91,7.3-21.86,14.56-32.77,21.86-.42.28-.8.56-1.22.84-17.09,10.3-33.84,21.11-50.18,32.53-.19-1.17-.56-2.29-.56-3.46v-103.87c0-.98.19-1.97.28-2.95,16.95,10.91,33.84,21.77,50.79,32.67v-.05Z"/><path class="cls-7" d="M1149.82,223.67c-16.95-10.91-33.84-21.77-50.79-32.67,4.92-4.92,11.23-7.86,16.95-11.61,11-7.26,22.28-14.14,33.42-21.2.09,19.47.19,38.95.28,58.42,0,2.34.09,4.73.14,7.07Z"/><path class="cls-9" d="M1099.32,301.24c16.34-11.42,33.14-22.19,50.18-32.53,0,21.72-.05,43.44-.09,65.21-16.9-10.58-33.84-21.11-50.09-32.67Z"/><path class="cls-9" d="M1421.7,190.77c-16.9,10.81-33.8,21.63-50.69,32.44,0-21.86.05-43.72.09-65.58,16.99,10.86,34.26,21.25,50.55,33.14h.05Z"/><path class="cls-7" d="M1370.91,268.24c17.04,10.63,34.08,21.25,50.46,32.86-14.32,9.46-28.69,18.91-43.02,28.37-2.48,1.64-4.87,3.37-7.3,5.01l-.37-.37c.09-21.95.19-43.95.28-65.91l-.05.05Z"/><path class="cls-11" d="M1370.91,268.24c-.09,21.95-.19,43.95-.28,65.91-18.68,12.17-37.4,24.29-55.94,36.61-3,1.97-4.92,1.03-7.4-.56-15.59-10.06-31.22-19.99-46.81-29.96v-.66c19.52-12.64,38.99-25.28,58.51-37.92.42-.47.84-.94,1.26-1.4,16.9-10.39,33.52-21.11,49.85-32.35.28.05.56.19.8.37v-.05Z"/><path class="cls-17" d="M1200.47,191.65c.37-1.22,1.26-1.92,2.29-2.57,19.15-12.31,38.29-24.62,57.39-36.93,19.52,12.73,39.09,25.42,58.61,38.15-1.03,2.62-3.7,3.46-5.76,4.82-17.13,11.28-34.36,22.47-51.54,33.66-1.17-.05-2.34-.09-3.51-.14-.33-.47-.61-1.08-1.03-1.4-13.95-9.08-27.85-18.26-41.99-27.01-4.63-2.86-8.71-6.74-14.04-8.38l-.47-.23.05.05Z"/><path class="cls-18" d="M1261.51,228.82c17.18-11.19,34.41-22.38,51.54-33.66,2.06-1.36,4.68-2.2,5.76-4.82.47.42.94.8,1.4,1.22-.19,14.32-.33,28.69-.51,43.02-4.31-2.06-7.91-6.46-13.67-2.06-6.18,4.77-13.01,8.66-19.57,12.92-.75,0-1.54-.05-2.29-.09-1.5-2.48-4.35-3.28-6.41-4.96-5.15-4.21-11.7-6.41-16.2-11.52l-.05-.05Z"/><path class="cls-9" d="M1319.7,234.58c.19-14.32.33-28.69.51-43.02,16.8,10.44,33.52,21.06,49.76,32.35-10.91,7.3-21.81,14.56-32.72,21.86h-.89c-5.29-3.6-10.39-7.49-16.29-10.11-.14-.37-.28-.7-.42-1.08h.05Z"/><path class="cls-17" d="M1318.99,301.61c-19.52,12.64-38.99,25.28-58.51,37.92-20.13-12.83-40.54-25.28-59.96-39.23.14-.19.28-.28.51-.33,1.45-.51,3.04-.84,4.35-1.64,13.67-8.75,27.43-17.46,40.86-26.59,4.21-2.86,9.74-4.35,11.89-9.78.75,0,1.5.05,2.29.09.61,1.36,1.87,1.92,3.04,2.67,12.26,7.91,24.67,15.63,36.75,23.83,6.32,4.31,13.62,7.21,18.86,13.06h-.09Z"/><path class="cls-9" d="M1150.71,267.91c10.91-7.3,21.86-14.56,32.77-21.86h.8c5.38,3.56,10.49,7.49,16.34,10.25.14.37.28.7.42,1.03,0,14.23,0,28.41-.05,42.64-.19.05-.37.19-.51.33-16.76-10.53-33.52-21.06-49.76-32.39Z"/><path class="cls-7" d="M1184.28,246h-.8c-10.95-7.4-21.95-14.75-32.91-22.14,16.29-11.33,32.91-22.14,49.9-32.3l.47.23c0,14.23,0,28.46.05,42.69-.19.37-.33.7-.47,1.08-5.85,2.81-11.05,6.6-16.29,10.34l.05.09Z"/><path class="cls-7" d="M1336.36,245.77h.89c10.95,7.4,21.91,14.75,32.81,22.14-16.34,11.23-33,21.95-49.85,32.35-.19-14.32-.33-28.65-.51-42.92.14-.37.33-.8.47-1.17,5.38-3.46,10.77-6.88,16.2-10.34v-.05Z"/><path class="cls-10" d="M1319.74,257.24c.19,14.32.33,28.65.51,42.92-.42.47-.84.94-1.26,1.4-5.24-5.85-12.55-8.8-18.86-13.11-12.08-8.19-24.48-15.92-36.75-23.83-1.17-.75-2.43-1.31-3.04-2.67,6.18-3.89,12.36-7.72,18.49-11.66,2.06-1.36,4.82-2.06,5.34-5.06.75,0,1.54.05,2.29.09,3.84,4.4,9.55,6.09,14,9.64,5.94,4.77,12.03,8.75,19.29,2.2v.05Z"/><path class="cls-10" d="M1201.03,234.58c0-14.23,0-28.46-.05-42.69,5.34,1.69,9.41,5.52,14.04,8.38,14.14,8.75,28.04,17.97,41.99,27.01.47.28.7.94,1.03,1.4-1.59,5.2-7.07,5.76-10.44,8.85-3.56,3.18-9.13,3.89-11,9.08l-2.29-.09c-4.54-4.77-11.05-6.69-15.87-10.95-5.76-5.06-11.23-6.55-17.37-.94l-.05-.05Z"/><path class="cls-6" d="M1236.61,246.56c1.87-5.2,7.44-5.9,11-9.08,3.42-3.04,8.85-3.65,10.44-8.85,1.17.05,2.34.09,3.51.14,4.49,5.1,11.05,7.3,16.2,11.52,2.11,1.73,4.92,2.48,6.41,4.96-.51,3-3.28,3.74-5.34,5.06-6.13,3.98-12.31,7.77-18.49,11.66-.75,0-1.5-.05-2.29-.09-1.17-2.29-3.56-3.09-5.48-4.35-5.43-3.51-11.33-6.41-15.96-11.05v.09Z"/><path class="cls-17" d="M1319.74,257.24c-7.26,6.55-13.34,2.57-19.29-2.2-4.45-3.56-10.16-5.24-14-9.64,6.55-4.26,13.39-8.14,19.57-12.92,5.71-4.4,9.32,0,13.67,2.06.14.37.28.7.37,1.08,0,6.83.05,13.62.09,20.46-.14.37-.33.8-.47,1.17h.05Z"/><path class="cls-8" d="M1320.21,256.07c0-6.83-.09-13.62-.09-20.46,5.9,2.62,11,6.51,16.29,10.11-5.38,3.46-10.77,6.88-16.2,10.34Z"/><path class="cls-18" d="M1236.61,246.56c4.68,4.63,10.53,7.49,15.96,11.05,1.92,1.26,4.35,2.06,5.48,4.35-2.15,5.43-7.68,6.93-11.89,9.78-13.43,9.13-27.2,17.79-40.86,26.59-1.26.8-2.9,1.12-4.35,1.64,0-14.23,0-28.41.05-42.64,5.8,4.96,11,4.4,16.9-.56,4.87-4.12,10.86-6.93,16.34-10.3.75,0,1.54.05,2.29.09h.09Z"/><path class="cls-17" d="M1234.27,246.47c-5.48,3.37-11.47,6.18-16.34,10.3-5.9,4.96-11.09,5.48-16.9.56-.14-.33-.28-.7-.42-1.03,0-6.88,0-13.72-.05-20.6.14-.37.28-.75.47-1.08,6.13-5.62,11.61-4.12,17.37.94,4.82,4.26,11.33,6.18,15.87,10.95v-.05Z"/><path class="cls-8" d="M1200.57,235.66c0,6.88,0,13.72.05,20.6-5.85-2.76-11-6.69-16.34-10.25,5.24-3.74,10.44-7.54,16.29-10.34Z"/><path d="M1009.69,575.71h-14.12l-7.27-15.89-4.36,6.19v9.7h-12.17v-42.05h12.17v17.39l11.6-17.39h11.6l-10.62,15.39,13.18,26.66Z"/><path d="M1029.75,576.35c-5.92,0-10.74-1.96-14.46-5.88-3.73-3.92-5.59-9.17-5.59-15.74s1.78-11.48,5.35-15.57c3.56-4.1,8.51-6.15,14.83-6.15,5.85,0,10.62,1.93,14.31,5.79,3.69,3.86,5.53,9.02,5.53,15.47s-1.86,12.03-5.58,16.05c-3.72,4.03-8.51,6.04-14.39,6.04ZM1029.68,566.8c2.18,0,3.74-.95,4.7-2.85.95-1.9,1.43-5.38,1.43-10.43,0-7.31-1.96-10.97-5.88-10.97-4.23,0-6.35,4.17-6.35,12.51,0,7.83,2.03,11.74,6.1,11.74Z"/><path d="M1091.12,575.71h-10.51l-11.52-18.58c-1.48-2.38-2.97-5.28-4.47-8.68.68,2.71,1.02,5.01,1.02,6.9v20.36h-10.47v-42.05h12.2l9.8,15.4c1.95,3.06,3.43,5.75,4.44,8.07-.66-3.59-.99-7.27-.99-11.03v-12.45h10.51v42.05Z"/><path d="M1124.73,559.96h-13.71v15.74h-12.57v-42.05h30.41v10.01h-17.84v6.84h13.71v9.46Z"/><path d="M1164.59,565.66v10.04h-31.64v-42.05h31.64v9.71h-18.98v6.1h15.34v9.33h-15.34v6.87h18.98Z"/><path d="M1207.14,575.71h-14.31l-6.14-16.08h-4.07v16.08h-12.91v-42.05h21.97c4.85,0,8.61,1.14,11.29,3.4,2.68,2.27,4.02,5.26,4.02,8.98,0,2.42-.49,4.57-1.48,6.42s-2.98,3.5-5.98,4.91l7.61,18.33ZM1182.62,550.63h5.51c1.62,0,2.93-.34,3.91-1.02.99-.68,1.48-1.67,1.48-2.99,0-2.69-1.65-4.04-4.96-4.04h-5.95v8.04Z"/><path d="M1244.88,565.66v10.04h-31.64v-42.05h31.64v9.71h-18.98v6.1h15.34v9.33h-15.34v6.87h18.98Z"/><path d="M1285.95,575.71h-10.51l-11.52-18.58c-1.48-2.38-2.97-5.28-4.47-8.68.68,2.71,1.02,5.01,1.02,6.9v20.36h-10.47v-42.05h12.2l9.8,15.4c1.95,3.06,3.43,5.75,4.44,8.07-.66-3.59-.99-7.27-.99-11.03v-12.45h10.51v42.05Z"/><path d="M1288.94,563.54l11.98-2.16c1.01,3.39,3.59,5.08,7.76,5.08,3.25,0,4.87-.86,4.87-2.59,0-.9-.37-1.61-1.12-2.11-.75-.5-2.09-.95-4.02-1.34-7.37-1.41-12.11-3.26-14.2-5.54-2.09-2.28-3.14-4.96-3.14-8.04,0-3.96,1.5-7.26,4.51-9.89,3.01-2.63,7.34-3.95,12.99-3.95,8.56,0,14.22,3.44,16.98,10.32l-10.69,3.23c-1.11-2.81-3.36-4.22-6.75-4.22-2.81,0-4.22.87-4.22,2.62,0,.78.32,1.39.95,1.82s1.87.84,3.7,1.23c5.03,1.06,8.61,2.01,10.72,2.82,2.12.82,3.88,2.22,5.3,4.2,1.42,1.98,2.12,4.32,2.12,7.01,0,4.25-1.72,7.7-5.18,10.34-3.45,2.64-7.98,3.96-13.59,3.96-10.25,0-16.57-4.27-18.98-12.82Z"/><path class="cls-14" d="M1344.7,560.42v15.28h-13.09v-42.05h17.96c4.48,0,7.88.51,10.21,1.54,2.33,1.03,4.18,2.6,5.55,4.71,1.36,2.12,2.05,4.49,2.05,7.12,0,4.01-1.4,7.24-4.19,9.71s-6.52,3.7-11.18,3.7h-7.3ZM1344.52,551.4h4.31c3.8,0,5.7-1.4,5.7-4.19,0-2.63-1.76-3.94-5.27-3.94h-4.74v8.13Z"/><path class="cls-14" d="M1392.66,575.71l-2.38-8.29h-11.27l-2.52,8.29h-10.48l12.98-42.05h13.65l13.19,42.05h-13.17ZM1381.21,558.24h6.8l-3.4-12.2-3.4,12.2Z"/><path class="cls-14" d="M1405.36,563.54l11.98-2.16c1.01,3.39,3.59,5.08,7.76,5.08,3.25,0,4.87-.86,4.87-2.59,0-.9-.37-1.61-1.12-2.11-.75-.5-2.09-.95-4.02-1.34-7.37-1.41-12.11-3.26-14.2-5.54-2.09-2.28-3.14-4.96-3.14-8.04,0-3.96,1.5-7.26,4.51-9.89,3.01-2.63,7.34-3.95,12.99-3.95,8.56,0,14.22,3.44,16.98,10.32l-10.69,3.23c-1.11-2.81-3.36-4.22-6.75-4.22-2.81,0-4.22.87-4.22,2.62,0,.78.32,1.39.95,1.82s1.87.84,3.7,1.23c5.03,1.06,8.61,2.01,10.72,2.82,2.12.82,3.88,2.22,5.3,4.2,1.42,1.98,2.12,4.32,2.12,7.01,0,4.25-1.72,7.7-5.18,10.34s-7.98,3.96-13.59,3.96c-10.25,0-16.57-4.27-18.98-12.82Z"/><path class="cls-14" d="M1443.69,563.54l11.98-2.16c1.01,3.39,3.59,5.08,7.76,5.08,3.25,0,4.87-.86,4.87-2.59,0-.9-.37-1.61-1.12-2.11-.75-.5-2.09-.95-4.02-1.34-7.37-1.41-12.11-3.26-14.2-5.54-2.09-2.28-3.14-4.96-3.14-8.04,0-3.96,1.5-7.26,4.51-9.89,3.01-2.63,7.34-3.95,12.99-3.95,8.56,0,14.22,3.44,16.98,10.32l-10.69,3.23c-1.11-2.81-3.36-4.22-6.75-4.22-2.81,0-4.22.87-4.22,2.62,0,.78.32,1.39.95,1.82s1.87.84,3.7,1.23c5.03,1.06,8.61,2.01,10.72,2.82,2.12.82,3.88,2.22,5.3,4.2,1.42,1.98,2.12,4.32,2.12,7.01,0,4.25-1.72,7.7-5.18,10.34s-7.98,3.96-13.59,3.96c-10.25,0-16.57-4.27-18.98-12.82Z"/><path class="cls-14" d="M1518,565.66v10.04h-31.64v-42.05h31.64v9.71h-18.98v6.1h15.34v9.33h-15.34v6.87h18.98Z"/><path class="cls-14" d="M1540.4,543.73v31.98h-12.23v-31.98h-8.72v-10.07h29.67v10.07h-8.72Z"/><line class="cls-15" x1="765.51" x2="765.51" y2="490"/></svg>